<?xml version="1.0" encoding="UTF-8" standalone="no"?>
<svg width="388px" height="35px" viewBox="0 0 388 35" version="1.1" xmlns="http://www.w3.org/2000/svg" xmlns:xlink="http://www.w3.org/1999/xlink">
    <!-- Generator: Sketch 3.8.3 (29802) - http://www.bohemiancoding.com/sketch -->
    <title>floppy</title>
    <desc>Created with Sketch.</desc>
    <defs></defs>
    <g id="Page-1" stroke="none" stroke-width="1" fill="none" fill-rule="evenodd">
        <g id="Desktop-HD-Copy-2" transform="translate(-237.000000, -736.000000)">
            <g id="floppy" transform="translate(237.000000, 736.000000)">
                <rect id="Rectangle-46" fill="#CCCCCC" x="0" y="14" width="387.429688" height="12" rx="3"></rect>
                <rect id="Rectangle-46-Copy" fill="#CCCCCC" x="131.400978" y="5" width="125.530831" height="30"></rect>
                <path d="M2.88,0.9 C1.44,0.9 0.38,1.68 0.38,2.9 C0.38,3.93 0.95,4.57 2.5,5.05 C3.51,5.36 3.77,5.59 3.77,6.1 C3.77,6.63 3.35,6.95 2.67,6.95 C1.98,6.95 1.43,6.7 0.92,6.27 L0.09,7.18 C0.66,7.73 1.52,8.17 2.72,8.17 C4.45,8.17 5.47,7.27 5.47,5.98 C5.47,4.7 4.72,4.16 3.41,3.74 C2.33,3.4 2.07,3.22 2.07,2.78 C2.07,2.34 2.43,2.1 3,2.1 C3.56,2.1 4.04,2.29 4.52,2.68 L5.28,1.79 C4.67,1.21 3.94,0.9 2.88,0.9 L2.88,0.9 Z M9.40999998,1.07 L7.76999998,1.07 L7.76999998,8 L11.94,8 L12.11,6.7 L9.40999998,6.7 L9.40999998,1.07 Z M17,0.9 C15.05,0.9 13.88,2.27 13.88,4.53 C13.88,6.84 15.05,8.17 17,8.17 C18.96,8.17 20.13,6.8 20.13,4.53 C20.13,2.22 18.96,0.9 17,0.9 L17,0.9 Z M17,2.1 C17.93,2.1 18.41,2.78 18.41,4.53 C18.41,6.29 17.94,6.97 17,6.97 C16.1,6.97 15.6,6.29 15.6,4.53 C15.6,2.78 16.08,2.1 17,2.1 L17,2.1 Z M24.7499999,1.07 L22.5099999,1.07 L22.5099999,8 L24.1499999,8 L24.1499999,5.69 L24.8999999,5.69 C26.4999999,5.69 27.6399999,4.94 27.6399999,3.33 C27.6399999,1.81 26.5399999,1.07 24.7499999,1.07 L24.7499999,1.07 Z M24.7599999,4.51 L24.1499999,4.51 L24.1499999,2.24 L24.7299999,2.24 C25.5399999,2.24 25.9499999,2.59 25.9499999,3.33 C25.9499999,4.2 25.4999999,4.51 24.7599999,4.51 L24.7599999,4.51 Z M32.1499999,1.07 L29.9099999,1.07 L29.9099999,8 L31.5499999,8 L31.5499999,5.69 L32.2999999,5.69 C33.8999999,5.69 35.0399999,4.94 35.0399999,3.33 C35.0399999,1.81 33.9399999,1.07 32.1499999,1.07 L32.1499999,1.07 Z M32.1599999,4.51 L31.5499999,4.51 L31.5499999,2.24 L32.1299999,2.24 C32.9399999,2.24 33.3499999,2.59 33.3499999,3.33 C33.3499999,4.2 32.8999999,4.51 32.1599999,4.51 L32.1599999,4.51 Z M42.3699999,1.07 L40.6399999,1.07 L39.3599999,4.12 L38.0799999,1.07 L36.2899999,1.07 L38.5099999,5.41 L38.5099999,8 L40.1499999,8 L40.1499999,5.4 L42.3699999,1.07 Z M50.0499998,1.07 L48.1199998,1.07 L48.1199998,8 L50.1999998,8 C51.9699998,8 53.6499998,7.29 53.6499998,4.5 C53.6499998,1.64 51.8999998,1.07 50.0499998,1.07 L50.0499998,1.07 Z M50.2799998,2.26 C51.2399998,2.26 51.9499998,2.64 51.9499998,4.5 C51.9499998,6.34 51.2899998,6.81 50.2999998,6.81 L49.7599998,6.81 L49.7599998,2.26 L50.2799998,2.26 Z M59.7299998,8 L61.5799998,8 L59.8199998,5.05 C60.7199998,4.63 61.1499998,4.09 61.1499998,3.18 C61.1499998,1.74 60.1799998,1.07 58.2999998,1.07 L56.0299998,1.07 L56.0299998,8 L57.6699998,8 L57.6699998,5.35 L58.3099998,5.35 L59.7299998,8 Z M57.6699998,2.22 L58.2599998,2.22 C59.0699998,2.22 59.4599998,2.51 59.4599998,3.18 C59.4599998,3.91 59.0799998,4.22 58.3599998,4.22 L57.6699998,4.22 L57.6699998,2.22 Z M65.2399998,1.07 L63.5999998,1.07 L63.5999998,8 L65.2399998,8 L65.2399998,1.07 Z M73.1199998,1.07 L71.4399998,1.07 L70.1999998,6.72 L68.8799998,1.07 L67.1499998,1.07 L69.1499998,8 L71.1899998,8 L73.1199998,1.07 Z M79.2799997,1.07 L75.0299997,1.07 L75.0299997,8 L79.2799997,8 L79.2799997,6.82 L76.6699997,6.82 L76.6699997,5.05 L78.7999997,5.05 L78.7999997,3.9 L76.6699997,3.9 L76.6699997,2.24 L79.1099997,2.24 L79.2799997,1.07 Z" id="SLOPPY-DRIVE" fill="#B3AFAF"></path>
            </g>
        </g>
    </g>
</svg>