<?xml version="1.0" encoding="UTF-8" standalone="no"?>
<svg width="1108px" height="259px" viewBox="0 0 1108 259" version="1.1" xmlns="http://www.w3.org/2000/svg" xmlns:xlink="http://www.w3.org/1999/xlink">
    <!-- Generator: Sketch 3.8.3 (29802) - http://www.bohemiancoding.com/sketch -->
    <title>Group</title>
    <desc>Created with Sketch.</desc>
    <defs></defs>
    <g id="Page-1" stroke="none" stroke-width="1" fill="none" fill-rule="evenodd">
        <g id="Artboard-2-Copy-3" transform="translate(-129.000000, -84.000000)" fill="#76B900">
            <g id="Group" transform="translate(129.000000, 84.000000)">
                <polygon id="&gt;" points="159.090909 148.538961 0 250 0 187.5 102.272727 125.811688 102.272727 124.188312 0 62.5 0 0 159.090909 101.461039"></polygon>
                <path d="M317.358456,24.5022017 L189.76,24.5022017 L189.76,45.5092645 L240.591905,45.5092645 L240.591905,203.191909 L265.229818,203.191909 L265.229818,45.5092645 L314.764991,45.5092645 L317.358456,24.5022017 Z M383.448577,63.4041699 C366.850404,63.4041699 354.142428,73.7780281 346.880727,94.266398 L344.546609,66.5163273 L324.058239,66.5163273 L324.058239,203.191909 L347.918113,203.191909 L347.918113,125.128626 C353.623735,98.9346341 363.4789,86.7453508 380.595766,86.7453508 C385.523349,86.7453508 388.37616,87.2640437 392.525703,88.3014295 L396.934593,64.9602486 C392.785049,63.9228628 387.857467,63.4041699 383.448577,63.4041699 L383.448577,63.4041699 Z M539.661591,66.5163273 L515.023678,66.5163273 L479.233868,185.815696 L442.666018,66.5163273 L417.250065,66.5163273 L463.154387,203.191909 L471.194128,203.191909 C463.413734,224.458318 455.63334,235.091523 427.88327,239.759759 L430.476734,258.432704 C468.341317,254.28316 484.420797,233.016751 494.016616,203.969948 L539.661591,66.5163273 Z M655.892027,108.01176 C672.490201,104.121563 688.829027,92.1916263 688.829027,69.3691383 C688.829027,35.6540993 659.263531,23.4648159 611.025091,23.4648159 L560.193186,23.4648159 L560.193186,203.191909 L618.027445,203.191909 C663.153728,203.191909 696.350074,191.780665 696.350074,150.803925 C696.350074,121.757122 675.861704,111.901957 655.892027,108.01176 L655.892027,108.01176 Z M617.335855,53.5490046 C637.824225,53.5490046 647.67939,58.4765872 647.67939,73.5186816 C647.67939,88.560776 638.342917,95.3037838 620.707359,95.3037838 L604.887225,95.3037838 L604.887225,53.5490046 L617.335855,53.5490046 Z M620.448012,172.329681 L604.887225,172.329681 L604.887225,123.572547 L623.56017,123.572547 C641.973768,123.572547 654.681744,130.315555 654.681744,148.469807 C654.681744,168.180137 640.417689,172.329681 620.448012,172.329681 L620.448012,172.329681 Z M829.956723,163.252555 L829.956723,109.827185 C829.956723,77.9275713 812.839857,61.0700518 772.900503,61.0700518 C757.339716,61.0700518 738.407424,64.7009022 721.031212,71.1845635 L730.367684,98.1565948 C744.113046,93.4883586 757.599062,90.8948941 766.416842,90.8948941 C783.274361,90.8948941 789.758022,95.8224767 789.758022,112.161303 L789.758022,118.126272 L775.753314,118.126272 C733.998535,118.126272 711.176047,134.465098 711.176047,164.549287 C711.176047,189.705893 728.552259,207.600799 756.042983,207.600799 C772.38181,207.600799 787.683251,202.154523 797.538416,187.112429 C804.022077,200.598444 814.655282,205.526027 830.734762,206.822759 L839.293195,180.110074 C832.809534,177.775956 829.956723,173.885759 829.956723,163.252555 L829.956723,163.252555 Z M769.05353,178.294649 C758.939019,178.294649 752.97405,171.810988 752.97405,160.918437 C752.97405,147.173075 762.051176,140.689413 780.724121,140.689413 L790.838633,140.689413 L790.838633,165.327326 C785.91105,173.367067 778.390003,178.294649 769.05353,178.294649 L769.05353,178.294649 Z M914.373994,61.0700518 C879.621569,61.0700518 858.095813,79.4836501 858.095813,103.084177 C858.095813,124.350587 871.581829,138.355295 898.813207,146.135689 C923.710466,153.138043 927.860009,155.990854 927.860009,165.327326 C927.860009,173.626413 920.338962,178.294649 907.890332,178.294649 C894.404317,178.294649 881.696341,172.848374 871.322482,164.808634 L851.352805,187.112429 C864.838821,199.301712 885.067844,207.600799 908.927718,207.600799 C943.16145,207.600799 970.133481,190.743279 970.133481,162.215169 C970.133481,137.577256 954.832041,126.166012 927.600663,118.385618 C902.96275,111.123918 899.331899,108.01176 899.331899,100.750059 C899.331899,94.5257444 904.778175,90.3762011 915.930073,90.3762011 C927.860009,90.3762011 939.271253,94.266398 949.904458,101.009406 L964.946552,77.9275713 C952.238576,67.5537132 934.343671,61.0700518 914.373994,61.0700518 L914.373994,61.0700518 Z M1069.63607,61.0700518 C1053.55659,61.0700518 1041.10796,67.5537132 1029.95606,80.002343 L1029.95606,6.60729636 L988.979324,10.7568396 L988.979324,203.191909 L1029.95606,203.191909 L1029.95606,108.789799 C1037.21776,97.6379019 1044.73881,91.1542405 1053.81594,91.1542405 C1061.59633,91.1542405 1066.78326,95.0444373 1066.78326,109.567839 L1066.78326,203.191909 L1107.76,203.191909 L1107.76,102.565485 C1107.76,76.3714926 1093.49595,61.0700518 1069.63607,61.0700518 L1069.63607,61.0700518 Z" id="TryBash"></path>
            </g>
        </g>
    </g>
</svg>